<?xml version="1.0" encoding="utf-8"?>
<!-- Generator: Adobe Illustrator 18.1.0, SVG Export Plug-In . SVG Version: 6.00 Build 0)  -->
<svg version="1.1" id="Layer_1" xmlns="http://www.w3.org/2000/svg" xmlns:xlink="http://www.w3.org/1999/xlink" x="0px" y="0px"
	 viewBox="0 0 72 72" enable-background="new 0 0 72 72" xml:space="preserve">
<circle fill="#BFAB39" cx="36" cy="36" r="36"/>
<path d="M44.5,34V18.3c4.4,2.8,4,7.8,4,7.8h5.7c0-4.7-2.5-11.4-9.7-14.2v-6h-4.6v4.8c-1-0.1-2.1-0.2-3.3-0.2c-1.3,0-2.5,0.1-3.6,0.2
	V5.9h-4.6v5.9c-6.9,2.5-9.4,7.9-9.6,10.3c-0.3,2.8-0.6,10.3,9.6,13.9v18.2c-6.2-3.2-5.9-9.7-5.9-9.7h-5.9c1,9.3,6.3,13.7,11.8,15.6
	v6H33v-5c1.3,0.2,2.5,0.2,3.6,0.2c1,0,2.1,0,3.3-0.1v4.9h4.6v-5.6c5.6-1.4,11-4.9,11-13.3C55.4,39.7,50.2,36.1,44.5,34z M28.4,29.7
	c-3.1-1.6-3.9-3.7-3.9-5.2c0-1.5-0.2-4.9,3.9-6.8V29.7z M39.9,55.7c-1,0.1-2.1,0.2-3.3,0.2c-1.3,0-2.5-0.1-3.6-0.3V37.1
	c2.7,0.5,5,1,6.9,1.5V55.7z M39.9,32.7c-2.5-0.6-4.9-1-6.7-1.4c0,0-0.1,0-0.1,0V16.6c1.1-0.1,2.2-0.2,3.6-0.2c1.2,0,2.3,0.1,3.3,0.3
	V32.7z M44.5,54.5V40.2c4.2,1.8,4.9,3.6,5.2,5.1C49.9,46.3,50.6,51.9,44.5,54.5z"/>
</svg>
