<?xml version="1.0" encoding="utf-8"?>
<!-- Generator: Adobe Illustrator 18.1.0, SVG Export Plug-In . SVG Version: 6.00 Build 0)  -->
<svg version="1.1" id="Layer_1" xmlns="http://www.w3.org/2000/svg" xmlns:xlink="http://www.w3.org/1999/xlink" x="0px" y="0px"
	 viewBox="0 0 72 72" enable-background="new 0 0 72 72" xml:space="preserve">
<circle fill="#F79139" cx="36" cy="36" r="36"/>
<g>
	<path d="M61.3,21.6V51h-0.5L45.7,34.2C52.8,28.7,61.1,21.8,61.3,21.6z"/>
	<path d="M58.2,51H13.8l14-15.6c3.9,2.9,7.2,5.1,8.2,5.1c1,0,4.3-2.2,8.2-5.1L58.2,51z"/>
	<path d="M26.3,34.2L11.2,51h-0.5V21.6C10.7,21.6,19.1,28.7,26.3,34.2z"/>
	<path d="M59.2,21c0,0-20.5,17.3-23.2,17.3C33.3,38.4,12.8,21,12.8,21H59.2z"/>
</g>
</svg>
