<?xml version="1.0" encoding="utf-8"?>
<!-- Generator: Adobe Illustrator 18.1.0, SVG Export Plug-In . SVG Version: 6.00 Build 0)  -->
<svg version="1.1" id="Layer_1" xmlns="http://www.w3.org/2000/svg" xmlns:xlink="http://www.w3.org/1999/xlink" x="0px" y="0px"
	 viewBox="0 0 72 72" enable-background="new 0 0 72 72" xml:space="preserve">
<circle fill="#D78365" cx="36" cy="36" r="36"/>
<path d="M14.8,14.8c-6.7,6.7-6.7,17.7,0,24.4c5.8,5.8,14.8,6.6,21.5,2.3l19.2,19.2l5.3-5.3L41.6,36.3c4.3-6.7,3.5-15.7-2.3-21.5
	C32.5,8.1,21.5,8.1,14.8,14.8z M34.4,34.4c-4.1,4.1-10.7,4.1-14.7,0c-4.1-4.1-4.1-10.7,0-14.7s10.7-4.1,14.7,0
	C38.4,23.7,38.4,30.3,34.4,34.4z"/>
</svg>
