<?xml version="1.0" encoding="utf-8"?>
<!-- Generator: Adobe Illustrator 18.1.0, SVG Export Plug-In . SVG Version: 6.00 Build 0)  -->
<svg version="1.1" id="Layer_1" xmlns="http://www.w3.org/2000/svg" xmlns:xlink="http://www.w3.org/1999/xlink" x="0px" y="0px"
	 viewBox="0 0 72 72" enable-background="new 0 0 72 72" xml:space="preserve">
<circle fill="#F79138" cx="36" cy="36" r="36"/>
<g>
	<path d="M57.8,11.5v18.8l-7.3,0l-11.6,0l6.7-6.6c-2.6-2.1-6-3.3-9.6-3.3c-8.6,0-15.6,7-15.6,15.6c0,0.4,0,0.8,0,1.2h-7.7
		c0-0.4,0-0.8,0-1.2c0-12.9,10.5-23.3,23.3-23.3c5.8,0,11,2.1,15.1,5.5L57.8,11.5z"/>
	<path d="M57.8,11.5v18.8l-7.3,0l-11.6,0l6.7-6.6c-2.6-2.1-6-3.3-9.6-3.3c-8.6,0-15.6,7-15.6,15.6c0,0.4,0,0.8,0,1.2h-7.7
		c0-0.4,0-0.8,0-1.2c0-12.9,10.5-23.3,23.3-23.3c5.8,0,11,2.1,15.1,5.5L57.8,11.5z"/>
	<path d="M14.2,60.5V41.7l7.3,0l11.6,0l-6.7,6.6c2.6,2.1,6,3.3,9.6,3.3c8.6,0,15.6-7,15.6-15.6c0-0.4,0-0.8,0-1.2h7.7
		c0,0.4,0,0.8,0,1.2c0,12.9-10.5,23.3-23.3,23.3c-5.8,0-11-2.1-15.1-5.5L14.2,60.5z"/>
</g>
</svg>
