<?xml version="1.0" encoding="utf-8"?>
<!-- Generator: Adobe Illustrator 18.1.0, SVG Export Plug-In . SVG Version: 6.00 Build 0)  -->
<svg version="1.1" id="Layer_1" xmlns="http://www.w3.org/2000/svg" xmlns:xlink="http://www.w3.org/1999/xlink" x="0px" y="0px"
	 viewBox="0 0 72 72" enable-background="new 0 0 72 72" xml:space="preserve">
<circle fill="#C37B7A" cx="36" cy="36" r="36"/>
<path d="M51.8,21.4C43.7,21,36,30.6,36,30.6s-7.7-9.5-15.8-9.1C11.3,21.9,5.4,28.4,5.4,36c0,7.6,5.9,14.1,14.8,14.6
	C28.3,51,36,41.4,36,41.4s7.7,9.5,15.8,9.1c8.9-0.5,14.8-7,14.8-14.6C66.6,28.4,60.7,21.9,51.8,21.4z M19,43.2
	c-5.6,0-7.1-5.5-7.1-7.2c0-1.7,1.5-7.2,7.1-7.2c5.6,0,10.4,7.2,10.4,7.2S24.7,43.2,19,43.2z M53,43.2c-5.6,0-10.4-7.2-10.4-7.2
	s4.8-7.2,10.4-7.2c5.6,0,7.1,5.5,7.1,7.2C60.1,37.7,58.6,43.2,53,43.2z"/>
</svg>
